<?xml version="1.0" encoding="utf-8"?>
<!-- Generator: Adobe Illustrator 25.0.0, SVG Export Plug-In . SVG Version: 6.00 Build 0)  -->
<svg version="1.1" id="图层_1" xmlns="http://www.w3.org/2000/svg" xmlns:xlink="http://www.w3.org/1999/xlink" x="0px" y="0px"
	 viewBox="0 0 45 45" style="enable-background:new 0 0 45 45;" xml:space="preserve">
<style type="text/css">
	.st0{fill:#E62330;}
	.st1{fill:#007BFF;}
	.st2{fill:#333333;}
</style>
<g>
	<path class="st0" d="M20.2,19.13c-0.44,0-0.87-0.21-1.15-0.59l-2.94-4.13c-0.45-0.63-0.3-1.51,0.33-1.96
		c0.63-0.45,1.51-0.3,1.96,0.33l2.94,4.13c0.45,0.63,0.3,1.51-0.33,1.96C20.78,19.04,20.49,19.13,20.2,19.13z"/>
	<path class="st1" d="M29.53,23.16H16.06c-0.78,0-1.41-0.63-1.41-1.41s0.63-1.41,1.41-1.41h13.46c0.78,0,1.41,0.63,1.41,1.41
		S30.3,23.16,29.53,23.16z M29.53,28.19H16.06c-0.78,0-1.41-0.63-1.41-1.41s0.63-1.41,1.41-1.41h13.46c0.78,0,1.41,0.63,1.41,1.41
		S30.3,28.19,29.53,28.19z"/>
	<path class="st1" d="M23.72,22.86c-0.29,0-0.58-0.09-0.82-0.26c-0.63-0.45-0.78-1.33-0.33-1.96l4.75-6.67
		c0.45-0.63,1.33-0.78,1.96-0.33c0.63,0.45,0.78,1.33,0.33,1.96l-4.75,6.67C24.6,22.66,24.16,22.86,23.72,22.86z"/>
	<path class="st1" d="M22.84,34.73c-0.78,0-1.41-0.63-1.41-1.41V22.45c0-0.78,0.63-1.41,1.41-1.41c0.78,0,1.41,0.63,1.41,1.41v10.87
		C24.25,34.1,23.62,34.73,22.84,34.73z"/>
</g>
<path class="st2" d="M22.79,43.45c-11.03,0-20-8.97-20-20s8.97-20,20-20s20,8.97,20,20S33.82,43.45,22.79,43.45z M22.79,6.23
	c-9.5,0-17.23,7.73-17.23,17.23s7.73,17.23,17.23,17.23s17.23-7.73,17.23-17.23S32.29,6.23,22.79,6.23z"/>
</svg>
