<?xml version="1.0" standalone="no"?><!DOCTYPE svg PUBLIC "-//W3C//DTD SVG 1.1//EN" "http://www.w3.org/Graphics/SVG/1.1/DTD/svg11.dtd"><svg t="1613959168611" class="icon" viewBox="0 0 1024 1024" version="1.1" xmlns="http://www.w3.org/2000/svg" p-id="23530" width="45" height="45" xmlns:xlink="http://www.w3.org/1999/xlink"><defs><style type="text/css"></style></defs><path d="M451.08 416.06c-10.02 0-19.89-4.68-26.14-13.46l-66.95-93.99c-10.27-14.42-6.91-34.44 7.51-44.71s34.44-6.91 44.71 7.51l66.95 93.99c10.27 14.42 6.91 34.44-7.51 44.71a31.923 31.923 0 0 1-18.57 5.95z" fill="#E62330" p-id="23531"></path><path d="M663.35 507.77h-306.4c-17.71 0-32.06-14.35-32.06-32.06s14.35-32.06 32.06-32.06h306.4c17.71 0 32.06 14.35 32.06 32.06s-14.35 32.06-32.06 32.06zM663.35 622.18h-306.4c-17.71 0-32.06-14.35-32.06-32.06s14.35-32.06 32.06-32.06h306.4c17.71 0 32.06 14.35 32.06 32.06s-14.35 32.06-32.06 32.06z" p-id="23532" data-spm-anchor-id="a313x.7781069.0.i138" class="" fill="#007bff"></path><path d="M531.32 500.96a31.9 31.9 0 0 1-18.57-5.95c-14.42-10.27-17.78-30.29-7.51-44.71l108.14-151.83c10.27-14.43 30.29-17.79 44.71-7.51 14.42 10.27 17.78 30.29 7.51 44.71L557.47 487.5c-6.26 8.79-16.13 13.46-26.15 13.46z" p-id="23533" data-spm-anchor-id="a313x.7781069.0.i141" class="" fill="#007bff"></path><path d="M511.14 770.93c-17.71 0-32.06-14.35-32.06-32.06V491.62c0-17.71 14.35-32.06 32.06-32.06s32.06 14.35 32.06 32.06v247.24c0 17.72-14.35 32.07-32.06 32.07z" p-id="23534" data-spm-anchor-id="a313x.7781069.0.i140" class="" fill="#007bff"></path><path d="M510.15 976.65c-254.86 0-462.22-207.35-462.22-462.22S255.29 52.22 510.15 52.22s462.22 207.35 462.22 462.22-207.36 462.21-462.22 462.21z m0-860.3c-219.51 0-398.09 178.58-398.09 398.09s178.58 398.09 398.09 398.09 398.09-178.58 398.09-398.09-178.58-398.09-398.09-398.09z" p-id="23535" data-spm-anchor-id="a313x.7781069.0.i135" class="selected" fill="#333333"></path></svg>