<?xml version="1.0" encoding="utf-8"?>
<!-- Generator: Adobe Illustrator 25.0.0, SVG Export Plug-In . SVG Version: 6.00 Build 0)  -->
<svg version="1.1" id="图层_1" xmlns="http://www.w3.org/2000/svg" xmlns:xlink="http://www.w3.org/1999/xlink" x="0px" y="0px"
	 viewBox="0 0 45 45" style="enable-background:new 0 0 45 45;" xml:space="preserve">
<style type="text/css">
	.st0{fill:#333333;}
	.st1{fill:#007BFF;}
</style>
<g>
	<path class="st0" d="M21.77,34.68c0.13,0.16,0.34,0.27,0.73,0.27h0.02c0.48,0,0.64-0.18,0.79-0.36
		c1.83-2.29,7.98-10.14,10.29-14.41c0.94-1.75,1.33-3.3,1.33-5.36c0-6.8-5.57-12.32-12.42-12.32S10.08,8,10.08,14.75
		c0,1.78,0.42,3.64,1.2,5.34C13.36,24.58,20.9,33.65,21.77,34.68z M22.5,4.42c5.8,0,10.51,4.67,10.51,10.41
		c0,1.74-0.31,2.98-1.1,4.45c-1.94,3.59-6.98,10.2-9.06,12.88l-0.37,0.47l-0.38-0.47c-2.2-2.7-7.48-9.36-9.09-12.83
		c-0.67-1.45-1.03-3.02-1.03-4.55C11.99,8.97,16.61,4.42,22.5,4.42z"/>
	<path class="st0" d="M33.3,27.65c-0.11-0.05-0.23-0.07-0.35-0.07c-0.39,0-0.74,0.24-0.89,0.6c-0.09,0.24-0.09,0.5,0.01,0.73
		c0.1,0.23,0.29,0.42,0.52,0.51c3.15,1.26,4.96,2.98,4.96,4.72c0,3.11-6.05,6.45-15.05,6.45S7.45,37.26,7.45,34.14
		c0-1.69,1.72-3.37,4.71-4.62c0.24-0.1,0.42-0.28,0.52-0.52c0.1-0.24,0.1-0.5,0-0.73c-0.15-0.36-0.5-0.59-0.88-0.59
		c-0.13,0-0.25,0.02-0.37,0.07c-3.79,1.58-5.88,3.85-5.88,6.38c0,4.76,7.29,8.36,16.96,8.36s16.96-3.59,16.96-8.36
		C39.46,31.58,37.21,29.21,33.3,27.65z"/>
	<path class="st1" d="M22.5,18.61c2.11,0,3.82-1.71,3.82-3.82s-1.71-3.82-3.82-3.82s-3.82,1.71-3.82,3.82S20.39,18.61,22.5,18.61z"
		/>
</g>
</svg>
