<?xml version="1.0" standalone="no"?><!DOCTYPE svg PUBLIC "-//W3C//DTD SVG 1.1//EN" "http://www.w3.org/Graphics/SVG/1.1/DTD/svg11.dtd"><svg t="1613958508592" class="icon" viewBox="0 0 1024 1024" version="1.1" xmlns="http://www.w3.org/2000/svg" p-id="15102" data-spm-anchor-id="a313x.7781069.0.i104" width="45" height="45" xmlns:xlink="http://www.w3.org/1999/xlink"><defs><style type="text/css"></style></defs><path d="M510.663552 1021.575758a505.69697 505.69697 0 0 1-247.272727-64.484849l-181.818182 7.272727a38.787879 38.787879 0 0 1-29.575757-13.575757 36.363636 36.363636 0 0 1-6.787879-29.575758l34.424242-134.30303a511.030303 511.030303 0 1 1 431.030303 237.090909z m-238.060606-137.212122a36.363636 36.363636 0 0 1 18.424243 4.848485 436.363636 436.363636 0 1 0-218.181819-378.666666 430.060606 430.060606 0 0 0 76.121213 246.30303 38.787879 38.787879 0 0 1 5.333333 30.060606l-26.666667 102.787879 145.454546-5.333334z" fill="#333333" p-id="15103" data-spm-anchor-id="a313x.7781069.0.i98" class="selected"></path><path d="M345.330219 723.878788a35.393939 35.393939 0 0 1-12.121212 0 36.848485 36.848485 0 0 1-21.818182-48.484849l128.484849-353.939394a36.848485 36.848485 0 0 1 48.484848-21.818181 35.878788 35.878788 0 0 1 21.333333 48.484848l-128.484848 353.939394a36.848485 36.848485 0 0 1-35.878788 21.818182zM530.057492 733.090909a38.787879 38.787879 0 0 1-12.606061 0 36.363636 36.363636 0 0 1-21.818182-48.484848l128.969697-353.454546a36.363636 36.363636 0 1 1 68.363637 24.727273l-128.969697 353.939394a36.363636 36.363636 0 0 1-33.939394 23.272727z" fill="#007bff" p-id="15104" data-spm-anchor-id="a313x.7781069.0.i100" class=""></path><path d="M704.118098 459.151515H320.118098A36.363636 36.363636 0 0 1 320.118098 387.878788h384a36.363636 36.363636 0 0 1 0 72.727273zM678.905977 636.606061H293.93628a36.363636 36.363636 0 0 1 0-72.727273H678.905977a36.363636 36.363636 0 0 1 0 72.727273z" fill="#007bff" p-id="15105" data-spm-anchor-id="a313x.7781069.0.i102" class=""></path></svg>