<?xml version="1.0" standalone="no"?><!DOCTYPE svg PUBLIC "-//W3C//DTD SVG 1.1//EN" "http://www.w3.org/Graphics/SVG/1.1/DTD/svg11.dtd"><svg t="1613958617575" class="icon" viewBox="0 0 1024 1024" version="1.1" xmlns="http://www.w3.org/2000/svg" p-id="15633" width="45" height="45" xmlns:xlink="http://www.w3.org/1999/xlink"><defs><style type="text/css"></style></defs><path d="M596.945455 391.757576h-20.428283l-7.886869 44.347475h28.185859c7.628283-0.129293 14.610101-4.137374 18.618181-10.602021l2.973738-16.678788c-2.19798-9.955556-11.119192-17.066667-21.462626-17.066666z m-53.527273 187.991919h44.993939l7.886869-44.347475h-44.993939l-7.886869 44.347475z m-135.111111-22.238384c0-12.153535 9.826263-22.109091 21.979798-22.109091h24.30707l17.971718-99.296969h-45.511112l-34.779798 197.042424c-2.19798 12.024242 5.947475 23.531313 17.971718 25.729293 12.024242 2.19798 23.531313-5.947475 25.729293-17.971717l10.60202-61.026263h-16.290909c-5.818182 0-11.507071-2.327273-15.644445-6.59394-4.008081-4.266667-6.335354-9.826263-6.335353-15.773737z m81.195959-219.151515c2.19798-12.024242-5.947475-23.531313-17.971717-25.729293-12.024242-2.068687-23.531313 5.947475-25.729293 17.971717l-10.60202 61.026263h44.864646l9.438384-53.268687z m-9.309091 53.268687h-45.123232l-7.886869 44.347475h45.123233l7.886868-44.347475z m0 0" fill="#007bff" p-id="15634" data-spm-anchor-id="a313x.7781069.0.i112" class="selected"></path><path d="M430.416162 535.40202c-12.282828 0-22.238384 9.955556-22.238384 22.238384s9.955556 22.238384 22.238384 22.238384h16.420202l7.886868-44.347475h-24.30707z m0 0M596.945455 436.105051h-28.315152l-17.583838 99.296969H596.040404l19.393939-109.640404c-3.878788 6.335354-10.860606 10.214141-18.488888 10.343435z m0-44.347475c10.214141 0.258586 19.006061 7.369697 21.20404 17.325252l12.541414-70.593939c2.19798-12.024242-5.947475-23.531313-17.971717-25.729293-12.024242-2.068687-23.531313 5.947475-25.729293 17.971717l-10.60202 61.026263h20.557576z m0 0" fill="#007bff" p-id="15635" data-spm-anchor-id="a313x.7781069.0.i111" class="selected"></path><path d="M663.40202 436.105051h2.327273c12.282828 0 22.238384-9.955556 22.238384-22.238384s-9.955556-22.238384-22.238384-22.238384h-2.327273c-12.282828 0-22.238384 9.955556-22.238384 22.238384s9.955556 22.238384 22.238384 22.238384z m-94.642424 0L576.646465 391.757576h-96.452526l-7.886868 44.347475h96.452525zM358.270707 391.757576c-12.282828 0-22.238384 9.955556-22.238384 22.238384s9.955556 22.238384 22.238384 22.238383h68.913131l7.886869-44.347474h-76.8z m260.913131 22.238384c0-1.680808-0.129293-3.232323-0.517171-4.913132l-2.973738 16.678788c2.19798-3.490909 3.490909-7.628283 3.490909-11.765656z m-164.460606 121.40606l-7.886868 44.347475h96.452525l7.886869-44.347475h-96.452526z m210.488889 44.347475c12.282828 0 22.238384-9.955556 22.238384-22.238384S677.494949 535.272727 665.212121 535.272727h-68.913131l-7.886869 44.347475h76.8z m-305.519192-44.347475h-1.422222c-5.818182 0-11.377778 2.327273-15.385859 6.59394-4.008081 4.137374-6.076768 9.826263-5.818181 15.644444 0.387879 12.412121 10.472727 22.238384 22.884848 22.109091 12.282828 0 22.238384-9.955556 22.238384-22.238384s-9.955556-22.238384-22.238384-22.238384l-0.258586 0.129293zM533.979798 633.018182c-2.19798 12.024242 5.947475 23.531313 17.971717 25.729293 12.024242 2.19798 23.531313-5.947475 25.729293-17.971717l10.60202-61.026263h-44.864646l-9.438384 53.268687z m0 0" fill="#007bff" p-id="15636" data-spm-anchor-id="a313x.7781069.0.i110" class="selected"></path><path d="M157.220202 872.59798c-10.084848 0-19.911111-4.008081-27.410101-11.377778-9.955556-9.955556-13.705051-24.048485-10.084848-37.624242l52.10505-194.585859c-18.618182-44.218182-28.70303-91.151515-29.737374-139.507071-1.163636-52.234343 8.145455-103.046465 27.668687-151.143434 18.747475-46.416162 46.157576-88.177778 81.454546-124.250505 35.167677-35.943434 76.282828-64.258586 122.311111-84.169697 47.709091-20.557576 98.262626-31.030303 150.367676-31.030303 102.012121 0 197.947475 39.692929 269.963637 111.838384 72.145455 72.145455 111.838384 168.080808 111.838384 270.092929 0 52.234343-10.472727 102.787879-31.030303 150.49697-19.911111 45.89899-48.226263 87.014141-84.169697 122.311111-36.072727 35.167677-77.834343 62.577778-124.379798 81.325252-48.226263 19.523232-99.038384 28.70303-151.272728 27.539394-57.276768-1.292929-111.838384-14.99798-162.650505-40.597979L167.434343 871.305051c-3.490909 0.905051-6.852525 1.292929-10.214141 1.292929z m366.545455-732.315152c-92.056566 0-178.424242 36.460606-243.070708 102.658586C215.919192 309.268687 181.39798 396.412121 183.466667 488.468687c1.034343 45.381818 10.860606 89.212121 29.090909 130.456566l2.973737 6.723232-54.690909 204.541414 196.266667-52.622222 7.240404 3.878788c47.062626 24.953535 98.00404 38.4 151.531313 39.563636 92.185859 2.19798 179.458586-32.323232 245.785858-97.09899 66.327273-64.775758 102.787879-151.014141 102.787879-243.2 0-91.022222-35.426263-176.484848-99.684848-240.872727-64.517172-64.129293-149.979798-99.555556-241.00202-99.555556z" fill="#333333" p-id="15637"></path></svg>