<?xml version="1.0" encoding="utf-8"?>
<!-- Generator: Adobe Illustrator 25.0.0, SVG Export Plug-In . SVG Version: 6.00 Build 0)  -->
<svg version="1.1" id="图层_1" xmlns="http://www.w3.org/2000/svg" xmlns:xlink="http://www.w3.org/1999/xlink" x="0px" y="0px"
	 viewBox="0 0 45 45" style="enable-background:new 0 0 45 45;" xml:space="preserve">
<style type="text/css">
	.st0{fill:#007BFF;}
	.st1{fill:#333333;}
</style>
<g>
	<path class="st0" d="M26.23,18.35h-0.9l-0.35,1.95c0.58-0.04,1.73,0.2,2.06-0.47C27.3,19.18,27.07,18.34,26.23,18.35z M23.88,26.61
		h1.98l0.35-1.95h-1.98L23.88,26.61z M17.94,25.64c-0.02-1.09,1.28-1,2.03-0.97l0.79-4.36h-2c0.22,0.9-2.7,9.78-0.74,9.79
		c1.53,0.33,1.29-2.66,1.6-3.47C18.92,26.7,17.92,26.56,17.94,25.64z M21.51,16c0.24-1.24-1.71-1.59-1.92-0.34
		c0,0-0.47,2.68-0.47,2.68h1.97C21.1,18.35,21.51,16,21.51,16z M21.1,18.35h-1.98l-0.35,1.95h1.98L21.1,18.35z"/>
	<path class="st0" d="M18.92,24.66c-1.8,0.3-0.85,2.41,0.72,1.95l0.35-1.95L18.92,24.66L18.92,24.66z M26.23,20.3h-1.24l-0.77,4.36
		h1.98l0.85-4.82C26.88,20.12,26.57,20.29,26.23,20.3z M26.23,18.35c0.45,0.01,0.84,0.32,0.93,0.76l0.55-3.1
		c0.24-1.24-1.71-1.59-1.92-0.34c0,0-0.47,2.68-0.47,2.68S26.23,18.35,26.23,18.35z"/>
	<path class="st0" d="M29.15,20.3c1.33,0.13,1.44-1.96,0.1-1.95C27.93,18.21,27.82,20.31,29.15,20.3z M25,20.3l0.35-1.95H21.1
		l-0.35,1.95H25z M15.75,18.35c-1.27-0.02-1.27,1.97,0,1.95c0,0,3.03,0,3.03,0l0.35-1.95L15.75,18.35L15.75,18.35z M27.21,19.33
		c0-0.07-0.01-0.14-0.02-0.22l-0.13,0.73C27.15,19.69,27.21,19.51,27.21,19.33z M19.98,24.66l-0.35,1.95h4.24l0.35-1.95
		C24.22,24.66,19.98,24.66,19.98,24.66z M29.23,26.61c1.27,0.02,1.27-1.97,0-1.95c0,0-3.03,0-3.03,0l-0.35,1.95L29.23,26.61
		L29.23,26.61z M15.81,24.66c-1.31-0.08-1.27,1.99,0.01,1.95C17.1,26.64,17.08,24.61,15.81,24.66z M23.47,28.95
		c-0.24,1.24,1.71,1.59,1.92,0.34c0,0,0.47-2.68,0.47-2.68h-1.97C23.88,26.61,23.47,28.95,23.47,28.95z"/>
</g>
<path class="st1" d="M4.47,42.5c-0.51,0-1.01-0.21-1.39-0.59c-0.51-0.51-0.7-1.24-0.51-1.95l2.65-10.06
	c-0.95-2.29-1.46-4.71-1.51-7.21c-0.06-2.7,0.41-5.33,1.41-7.81c0.95-2.4,2.35-4.56,4.14-6.42c1.79-1.86,3.88-3.32,6.21-4.35
	c2.42-1.06,4.99-1.6,7.64-1.6c5.18,0,10.06,2.05,13.72,5.78c3.67,3.73,5.68,8.69,5.68,13.96c0,2.7-0.53,5.31-1.58,7.78
	c-1.01,2.37-2.45,4.5-4.28,6.32c-1.83,1.82-3.95,3.24-6.32,4.2c-2.45,1.01-5.03,1.48-7.69,1.42c-2.91-0.07-5.68-0.78-8.26-2.1
	l-9.39,2.55C4.82,42.48,4.64,42.5,4.47,42.5z M23.1,4.64c-4.68,0-9.06,1.89-12.35,5.31c-3.29,3.43-5.04,7.93-4.94,12.69
	c0.05,2.35,0.55,4.61,1.48,6.74l0.15,0.35L4.66,40.31l9.97-2.72l0.37,0.2c2.39,1.29,4.98,1.99,7.7,2.05
	c4.68,0.11,9.12-1.67,12.49-5.02c3.37-3.35,5.22-7.81,5.22-12.57c0-4.71-1.8-9.12-5.06-12.45C32.06,6.47,27.72,4.64,23.1,4.64z"/>
</svg>
