<?xml version="1.0" standalone="no"?><!DOCTYPE svg PUBLIC "-//W3C//DTD SVG 1.1//EN" "http://www.w3.org/Graphics/SVG/1.1/DTD/svg11.dtd"><svg t="1614160830586" class="icon" viewBox="0 0 1034 1024" version="1.1" xmlns="http://www.w3.org/2000/svg" p-id="1574" width="151.46484375" height="150" xmlns:xlink="http://www.w3.org/1999/xlink"><defs><style type="text/css"></style></defs><path d="M31.661103 1024A31.692659 31.692659 0 0 1 0 992.338897V48.922189a31.692659 31.692659 0 0 1 31.661103-31.661103h943.311522a31.692659 31.692659 0 0 1 31.661102 31.661103v943.311522a31.692659 31.692659 0 0 1-31.661102 31.661103m-7.888979-39.550082V56.916354H39.655268v927.533564" fill="#4D4D4D" p-id="1575"></path><path d="M1012.313792 71.642448l-2.840032-7.25786a74.95582 74.95582 0 0 0-62.691087-47.123502s-38.393031-4.733387-42.390114 1.262237l-182.603569 272.117184a28.989368 28.989368 0 0 0 7.888979 39.970827l65.741493 44.073097a28.989368 28.989368 0 0 0 39.970827-7.888979l178.816858-266.43712a15.777958 15.777958 0 0 0 2.314101-12.306807c-1.472609-6.205997-3.576337-14.726094-4.207456-16.409077z" fill="#545454" p-id="1576"></path><path d="M814.878943 401.296587a28.715884 28.715884 0 0 1-16.093517-4.943761l-91.617343-62.059968a28.810552 28.810552 0 0 1-12.096435-18.407618 28.400325 28.400325 0 0 1 4.417828-21.563209L891.980565 9.898039c6.205997-9.256402 18.092059-10.518639 36.499677-9.677148 9.88752 0.420746 19.143923 1.577796 20.721718 1.788169a90.544442 90.544442 0 0 1 75.523826 57.326581l2.840033 7.257861c0.420746 1.051864 1.472609 3.891896 6.205996 25.560292a16.104036 16.104036 0 0 1-2.3141 12.201621l-192.596275 284.213619a28.810552 28.810552 0 0 1-18.407618 12.096434 25.171103 25.171103 0 0 1-5.574879 0.631119z m-74.682335-82.781687l61.008105 41.233064a15.777958 15.777958 0 0 0 21.878768-4.207456l174.504217-257.811835a16.156629 16.156629 0 0 0 2.314101-12.411994c-0.631118-2.840032-1.262237-5.259319-1.577796-6.731929a7.87846 7.87846 0 0 0-0.525932-1.682982l-2.419287-6.205997a58.988526 58.988526 0 0 0-49.437602-37.341168h-0.420746c-7.257861-0.946677-14.936467-1.472609-21.24765-1.682982a15.68329 15.68329 0 0 0-13.569044 6.942302l-174.714589 258.022208a15.84107 15.84107 0 0 0 4.207455 21.878769z m257.917022-240.561268z" fill="#FFFFFF" p-id="1577"></path><path d="M287.158838 261.293505c-53.960617-0.105186 63.217019-13.98979 63.848137 91.827716 0.736305 117.072449-41.33825 197.645222-41.33825 289.578125 0 79.20535 105.817506 67.319288 97.507781 65.531119-15.357213-3.365964 179.868722-134.112644 201.957863-224.678123 29.241816-120.964346-264.96451-222.15365-321.975531-222.258837z" fill="" p-id="1578"></path><path d="M811.828538 374.158499l-90.986225-59.219936c-4.733387-2.734846-46.28201 12.096435-74.051217 29.872934-106.974556 68.686711-163.775205 300.20195-265.490442 339.541658-0.946677 0.420746-17.881686 9.677148-38.182658 11.254944s17.566127 18.617991 149.36467 26.296596c313.770994-4.312642 322.501464-259.600004 324.079259-281.478772 1.788169-19.775041-0.525932-63.848137-4.733387-66.267424z" fill="#545454" p-id="1579"></path></svg>