<?xml version="1.0" standalone="no"?><!DOCTYPE svg PUBLIC "-//W3C//DTD SVG 1.1//EN" "http://www.w3.org/Graphics/SVG/1.1/DTD/svg11.dtd"><svg t="1613959388754" class="icon" viewBox="0 0 1024 1024" version="1.1" xmlns="http://www.w3.org/2000/svg" p-id="29149" data-spm-anchor-id="a313x.7781069.0.i157" width="45" height="45" xmlns:xlink="http://www.w3.org/1999/xlink"><defs><style type="text/css"></style></defs><path d="M710.7 802H270.6c-37.5 0-68-30.5-68-68V348.6c0-33.3 23.8-61.5 56.7-67.1l345.8-58.3c37-6.2 72.1 18.8 78.4 55.7l2.3 13.6c1.8 10.9-5.5 21.2-16.4 23-10.9 1.8-21.2-5.5-23-16.4l-2.3-13.6c-2.6-15.2-17-25.5-32.3-22.9L266 321c-13.5 2.3-23.3 13.9-23.3 27.6V734c0 15.4 12.6 28 28 28h440.1c15.4 0 28-12.6 28-28v-99c0-11 9-20 20-20s20 9 20 20v99c-0.1 37.5-30.6 68-68.1 68z" p-id="29150"></path><path d="M758.7 499c-11 0-20-9-20-20v-83c0-15.4-12.6-28-28-28H314.9c-11 0-20-9-20-20s9-20 20-20h395.8c37.5 0 68 30.5 68 68v83c0 11.1-8.9 20-20 20z" p-id="29151"></path><path d="M765.7 655H603.6c-30.9 0-56-25.1-56-56v-84c0-30.9 25.1-56 56-56h162.1c30.9 0 56 25.1 56 56v84c0 30.9-25.1 56-56 56zM603.6 499c-8.8 0-16 7.2-16 16v84c0 8.8 7.2 16 16 16h162.1c8.8 0 16-7.2 16-16v-84c0-8.8-7.2-16-16-16H603.6z" p-id="29152" data-spm-anchor-id="a313x.7781069.0.i158" class="selected" fill="#007bff"></path><path d="M637.9 590.8c-11 0-20-9-20-20v-27.6c0-11 9-20 20-20s20 9 20 20v27.6c0 11-9 20-20 20z" p-id="29153" data-spm-anchor-id="a313x.7781069.0.i160" class="selected"></path></svg>