<?xml version="1.0" encoding="utf-8"?>
<!-- Generator: Adobe Illustrator 25.0.0, SVG Export Plug-In . SVG Version: 6.00 Build 0)  -->
<svg version="1.1" id="图层_1" xmlns="http://www.w3.org/2000/svg" xmlns:xlink="http://www.w3.org/1999/xlink" x="0px" y="0px"
	 viewBox="0 0 45 45" style="enable-background:new 0 0 45 45;" xml:space="preserve">
<style type="text/css">
	.st0{fill:#007BFF;}
</style>
<g>
	<path d="M35.33,42.5H6.89c-2.42,0-4.39-2.1-4.39-4.69V11.22c0-2.3,1.54-4.24,3.66-4.63l22.34-4.02c2.39-0.43,4.66,1.3,5.07,3.84
		l0.15,0.94c0.12,0.75-0.36,1.46-1.06,1.59c-0.7,0.12-1.37-0.38-1.49-1.13l-0.15-0.94c-0.17-1.05-1.1-1.76-2.09-1.58L6.6,9.31
		c-0.87,0.16-1.51,0.96-1.51,1.9v26.59c0,1.06,0.81,1.93,1.81,1.93h28.43c0.99,0,1.81-0.87,1.81-1.93v-6.83
		c0-0.76,0.58-1.38,1.29-1.38s1.29,0.62,1.29,1.38v6.83C39.72,40.4,37.75,42.5,35.33,42.5z"/>
	<path d="M38.43,21.59c-0.71,0-1.29-0.62-1.29-1.38v-5.73c0-1.06-0.81-1.93-1.81-1.93H9.76c-0.71,0-1.29-0.62-1.29-1.38
		S9.04,9.8,9.76,9.8h25.57c2.42,0,4.39,2.1,4.39,4.69v5.73C39.72,20.98,39.15,21.59,38.43,21.59z"/>
	<path class="st0" d="M38.88,32.36H28.41c-2,0-3.62-1.73-3.62-3.86v-5.8c0-2.13,1.62-3.86,3.62-3.86h10.47c2,0,3.62,1.73,3.62,3.86
		v5.8C42.5,30.63,40.88,32.36,38.88,32.36z M28.41,21.59c-0.57,0-1.03,0.5-1.03,1.1v5.8c0,0.61,0.47,1.1,1.03,1.1h10.47
		c0.57,0,1.03-0.5,1.03-1.1v-5.8c0-0.61-0.47-1.1-1.03-1.1H28.41z"/>
	<path d="M30.62,27.93c-0.71,0-1.29-0.62-1.29-1.38v-1.9c0-0.76,0.58-1.38,1.29-1.38s1.29,0.62,1.29,1.38v1.9
		C31.92,27.31,31.34,27.93,30.62,27.93z"/>
</g>
</svg>
