<?xml version="1.0" encoding="utf-8"?>
<!-- Generator: Adobe Illustrator 25.0.0, SVG Export Plug-In . SVG Version: 6.00 Build 0)  -->
<svg version="1.1" id="图层_1" xmlns="http://www.w3.org/2000/svg" xmlns:xlink="http://www.w3.org/1999/xlink" x="0px" y="0px"
	 viewBox="0 0 45 45" style="enable-background:new 0 0 45 45;" xml:space="preserve">
<style type="text/css">
	.st0{fill:#333333;}
	.st1{fill:#007BFF;}
</style>
<g>
	<path class="st0" d="M22.5,42.5c-2.7,0-5.32-0.53-7.78-1.57c-2.38-1.01-4.52-2.45-6.36-4.29s-3.28-3.97-4.29-6.35
		C3.03,27.82,2.5,25.2,2.5,22.51s0.53-5.32,1.57-7.78c1-2.39,2.45-4.52,4.29-6.36s3.98-3.28,6.36-4.29C17.18,3.03,19.8,2.5,22.5,2.5
		s5.32,0.53,7.78,1.57c2.38,1.01,4.52,2.45,6.36,4.29c1.84,1.84,3.28,3.98,4.29,6.36c1.04,2.47,1.57,5.08,1.57,7.78
		s-0.53,5.32-1.57,7.78c-1.01,2.38-2.45,4.52-4.29,6.36c-1.84,1.84-3.98,3.28-6.36,4.29C27.82,41.98,25.2,42.5,22.5,42.5z
		 M22.5,4.55c-9.89,0-17.95,8.05-17.95,17.95s8.05,17.95,17.95,17.95s17.95-8.05,17.95-17.95S32.39,4.55,22.5,4.55z"/>
	<path class="st0" d="M22.5,35.34c-3.43,0-6.65-1.34-9.08-3.76c-2.43-2.42-3.76-5.65-3.76-9.08c0-3.43,1.34-6.65,3.76-9.07
		s5.64-3.76,9.06-3.77c0.56,0,1.02,0.45,1.02,1.02c0,0.56-0.45,1.02-1.02,1.02c-5.94,0.01-10.77,4.86-10.77,10.8
		c0,5.95,4.84,10.8,10.8,10.8s10.8-4.84,10.8-10.8v-0.02c0-0.56,0.46-1.02,1.02-1.02c0.56,0,1.02,0.46,1.02,1.02v0.02
		c0,3.43-1.34,6.65-3.76,9.08C29.15,34.01,25.93,35.34,22.5,35.34z"/>
	<path class="st1" d="M22.51,28.03h-0.02c-0.56-0.01-1.02-0.46-1.02-1.02s0.46-1.02,1.02-1.02h0.01c1.92,0,3.48-1.57,3.48-3.49
		c0-1.93-1.56-3.49-3.49-3.49s-3.49,1.56-3.49,3.49c0,0.09,0.01,0.17,0.01,0.26c0.04,0.56-0.38,1.05-0.95,1.1
		c-0.56,0.04-1.05-0.38-1.1-0.95c-0.01-0.14-0.02-0.27-0.02-0.4c0-3.05,2.48-5.53,5.53-5.53s5.53,2.48,5.53,5.53
		S25.56,28.03,22.51,28.03z"/>
</g>
</svg>
