<?xml version="1.0" encoding="utf-8"?>
<!-- Generator: Adobe Illustrator 25.0.0, SVG Export Plug-In . SVG Version: 6.00 Build 0)  -->
<svg version="1.1" id="图层_1" xmlns="http://www.w3.org/2000/svg" xmlns:xlink="http://www.w3.org/1999/xlink" x="0px" y="0px"
	 viewBox="0 0 45 45" style="enable-background:new 0 0 45 45;" xml:space="preserve">
<style type="text/css">
	.st0{opacity:0.21;fill:#B4CFFF;enable-background:new    ;}
	.st1{fill:#007BFF;}
	.st2{fill:#333333;}
	.st3{fill:#FFFFFF;}
</style>
<g>
	<path class="st0" d="M6.59,23.97c0,9.6,7.78,17.38,17.38,17.38s17.38-7.78,17.38-17.38S33.57,6.59,23.97,6.59
		S6.59,14.36,6.59,23.97z"/>
	<path class="st1" d="M40.58,18.32c-0.5,0-0.96-0.33-1.11-0.83c-0.13-0.46-0.29-0.92-0.46-1.36c-0.23-0.6,0.07-1.27,0.67-1.5
		c0.6-0.23,1.27,0.07,1.5,0.67c0.19,0.51,0.37,1.02,0.52,1.54c0.18,0.61-0.17,1.26-0.78,1.44C40.8,18.31,40.69,18.32,40.58,18.32z"
		/>
	<path class="st2" d="M22.5,42.5c-11.03,0-20-8.97-20-20s8.97-20,20-20c6.67,0,12.87,3.31,16.61,8.85c0.36,0.53,0.22,1.25-0.32,1.61
		c-0.53,0.36-1.25,0.22-1.61-0.32c-3.3-4.91-8.79-7.83-14.69-7.83c-9.75,0-17.69,7.94-17.69,17.69s7.94,17.69,17.69,17.69
		s17.69-7.94,17.69-17.69c0-0.64,0.52-1.16,1.16-1.16c0.64,0,1.16,0.52,1.16,1.16C42.5,33.53,33.53,42.5,22.5,42.5z"/>
	<path class="st3" d="M29.08,20.59l-9.01-5.2c-1.3-0.75-2.91,0.19-2.91,1.68v10.41c0,1.5,1.62,2.43,2.91,1.68l9.01-5.2
		C30.38,23.21,30.38,21.33,29.08,20.59z"/>
	<path class="st1" d="M19.09,30.58c-0.53,0-1.07-0.14-1.55-0.42C16.58,29.6,16,28.59,16,27.48V17.07c0-1.12,0.58-2.12,1.55-2.68
		c0.97-0.56,2.12-0.56,3.1,0l9.01,5.2c0.97,0.56,1.55,1.57,1.55,2.68c0,1.12-0.58,2.12-1.55,2.68l-9.01,5.2
		C20.16,30.44,19.63,30.58,19.09,30.58z M19.1,16.27c-0.18,0-0.33,0.07-0.4,0.11c-0.12,0.07-0.4,0.27-0.4,0.68v10.41
		c0,0.41,0.28,0.62,0.4,0.68s0.43,0.21,0.79,0l9.01-5.2c0.36-0.21,0.39-0.55,0.39-0.68c0-0.14-0.04-0.48-0.39-0.68l-9.01-5.2
		C19.35,16.3,19.21,16.27,19.1,16.27z"/>
</g>
</svg>
