<?xml version="1.0" encoding="utf-8"?>
<!-- Generator: Adobe Illustrator 25.0.0, SVG Export Plug-In . SVG Version: 6.00 Build 0)  -->
<svg version="1.1" id="图层_1" xmlns="http://www.w3.org/2000/svg" xmlns:xlink="http://www.w3.org/1999/xlink" x="0px" y="0px"
	 viewBox="0 0 45 45" style="enable-background:new 0 0 45 45;" xml:space="preserve">
<style type="text/css">
	.st0{opacity:0.21;fill:#B4CFFF;}
	.st1{fill:#007BFF;}
	.st2{fill:#333333;}
	.st3{fill:#FFFFFF;}
</style>
<path class="st0" d="M6.54,23.97c0,9.63,7.8,17.43,17.43,17.43S41.4,33.6,41.4,23.97S33.6,6.54,23.97,6.54S6.54,14.34,6.54,23.97z"
	/>
<path class="st1" d="M40.63,18.31c-0.5,0-0.96-0.33-1.11-0.83c-0.13-0.46-0.29-0.92-0.46-1.36c-0.23-0.6,0.07-1.27,0.67-1.5
	c0.6-0.23,1.27,0.07,1.5,0.67c0.19,0.51,0.37,1.02,0.52,1.54c0.18,0.61-0.17,1.26-0.78,1.44C40.85,18.3,40.74,18.31,40.63,18.31z"/>
<path class="st2" d="M22.5,42.56c-11.06,0-20.06-9-20.06-20.06s9-20.06,20.06-20.06c6.69,0,12.91,3.32,16.66,8.88
	c0.36,0.53,0.22,1.25-0.32,1.61c-0.53,0.36-1.25,0.22-1.61-0.32c-3.31-4.92-8.82-7.85-14.73-7.85c-9.78,0-17.74,7.96-17.74,17.74
	c0,9.78,7.96,17.74,17.74,17.74c9.78,0,17.74-7.96,17.74-17.74c0-0.64,0.52-1.16,1.16-1.16c0.64,0,1.16,0.52,1.16,1.16
	C42.56,33.56,33.56,42.56,22.5,42.56z"/>
<path class="st3" d="M29.1,20.58l-9.04-5.22c-1.3-0.75-2.92,0.19-2.92,1.69v10.44c0,1.5,1.62,2.44,2.92,1.69l9.04-5.22
	C30.4,23.21,30.4,21.33,29.1,20.58z"/>
<path class="st1" d="M19.08,30.6c-0.53,0-1.07-0.14-1.55-0.42c-0.97-0.56-1.55-1.57-1.55-2.69V17.05c0-1.12,0.58-2.13,1.55-2.69
	c0.97-0.56,2.13-0.56,3.11,0l9.04,5.22c0.97,0.56,1.55,1.57,1.55,2.69c0,1.12-0.58,2.13-1.55,2.69l-9.04,5.22
	C20.15,30.46,19.62,30.6,19.08,30.6z M19.09,16.25c-0.18,0-0.33,0.07-0.4,0.11c-0.12,0.07-0.4,0.27-0.4,0.68v10.44
	c0,0.41,0.28,0.62,0.4,0.68s0.43,0.21,0.79,0l9.04-5.22c0.36-0.21,0.39-0.55,0.39-0.68c0-0.14-0.04-0.48-0.39-0.68l-9.04-5.22
	C19.34,16.28,19.2,16.25,19.09,16.25z"/>
</svg>
