<?xml version="1.0" encoding="utf-8"?>
<!-- Generator: Adobe Illustrator 25.0.0, SVG Export Plug-In . SVG Version: 6.00 Build 0)  -->
<svg version="1.1" id="图层_1" xmlns="http://www.w3.org/2000/svg" xmlns:xlink="http://www.w3.org/1999/xlink" x="0px" y="0px"
	 viewBox="0 0 45 45" style="enable-background:new 0 0 45 45;" xml:space="preserve">
<style type="text/css">
	.st0{fill:#333333;}
	.st1{fill:#FFFFFF;}
	.st2{fill:#007BFF;}
</style>
<g>
	<g>
		<path class="st0" d="M36.5,42.5h-28c-3.31,0-6-2.69-6-6v-28c0-3.31,2.69-6,6-6h28c3.31,0,6,2.69,6,6v28
			C42.5,39.81,39.81,42.5,36.5,42.5z"/>
		<path class="st1" d="M36.5,40.5h-28c-2.21,0-4-1.79-4-4v-28c0-2.21,1.79-4,4-4h28c2.21,0,4,1.79,4,4v28
			C40.5,38.71,38.71,40.5,36.5,40.5z"/>
	</g>
	<path class="st2" d="M26.44,36.65l-8.3-12.74L9.03,35.12l-2.1-1.71l11.45-14.1l8.19,12.57l4.58-6.26l4.93,6.96l-2.22,1.57
		l-2.76-3.89L26.44,36.65z M31.49,18.71c-2.9-0.09-5.18-2.51-5.09-5.42c0.09-2.78,2.32-5.01,5.09-5.09c2.9,0,5.26,2.36,5.26,5.26
		S34.38,18.71,31.49,18.71z M31.49,10.91c-1.41,0-2.55,1.14-2.55,2.55S30.08,16,31.49,16c1.41,0,2.54-1.14,2.54-2.55
		C34.03,12.05,32.89,10.91,31.49,10.91z"/>
</g>
</svg>
