<?xml version="1.0" standalone="no"?><!DOCTYPE svg PUBLIC "-//W3C//DTD SVG 1.1//EN" "http://www.w3.org/Graphics/SVG/1.1/DTD/svg11.dtd"><svg t="1613959625386" class="icon" viewBox="0 0 1024 1024" version="1.1" xmlns="http://www.w3.org/2000/svg" p-id="32871" width="45" height="45" xmlns:xlink="http://www.w3.org/1999/xlink"><defs><style type="text/css"></style></defs><path d="M514 114.4c-220 0-398.8 178.9-398.8 398.8S294 912 514 912s398.8-178.9 398.8-398.8S734 114.4 514 114.4z m0 754.9c-196.4 0-356.1-159.8-356.1-356.1S317.6 157.1 514 157.1c196.4 0 356.1 159.8 356.1 356.1S710.4 869.3 514 869.3z" p-id="32872"></path><path d="M540.8 614.7c-1.7 1.7-3.5 3.2-5.5 4.5V252.1h-42.7v367.2c-1.9-1.3-3.8-2.8-5.5-4.5L368.9 496.5l-30.2 30.2L457 644.9c15.7 15.7 36.4 23.6 57 23.6 20.7 0 41.3-7.9 57-23.6l118.3-118.3-30.2-30.2-118.3 118.3zM358.6 697.4h310.7v42.7H358.6z" p-id="32873" data-spm-anchor-id="a313x.7781069.0.i181" class="selected" fill="#007bff"></path></svg>