<?xml version="1.0" encoding="utf-8"?>
<!-- Generator: Adobe Illustrator 25.0.0, SVG Export Plug-In . SVG Version: 6.00 Build 0)  -->
<svg version="1.1" id="图层_1" xmlns="http://www.w3.org/2000/svg" xmlns:xlink="http://www.w3.org/1999/xlink" x="0px" y="0px"
	 viewBox="0 0 45 45" style="enable-background:new 0 0 45 45;" xml:space="preserve">
<style type="text/css">
	.st0{fill:#333333;}
	.st1{fill:#FFFFFF;}
	.st2{fill:#007BFF;}
</style>
<g>
	<g>
		<circle class="st0" cx="22.5" cy="22.5" r="20"/>
		<circle class="st1" cx="22.5" cy="22.5" r="18"/>
	</g>
	<g>
		<path class="st2" d="M25.74,33.75H15.06c-4.17,0-7.56-3.36-7.56-7.5c0-3.55,2.48-6.52,5.82-7.3c0.84-4.47,4.74-7.71,9.29-7.7
			c4.49-0.01,8.36,3.14,9.26,7.53c-3.16-0.28-6.22,1.21-7.93,3.88c-0.31,0.52-0.25,0.94,0.18,1.24c0.64,0.45,1.32-0.29,1.32-0.29
			c0.86-1.07,2.74,0.13,5.65,3.58l0.06,6.56C31.14,33.75,25.74,33.75,25.74,33.75z"/>
		<path class="st2" d="M24.38,27.19c0,3.62,2.94,6.56,6.56,6.56c3.62,0,6.56-2.94,6.56-6.56c0-3.62-2.94-6.56-6.57-6.56
			C27.31,20.63,24.38,23.57,24.38,27.19z"/>
	</g>
</g>
</svg>
