<?xml version="1.0" encoding="utf-8"?>
<!-- Generator: Adobe Illustrator 25.0.0, SVG Export Plug-In . SVG Version: 6.00 Build 0)  -->
<svg version="1.1" id="图层_1" xmlns="http://www.w3.org/2000/svg" xmlns:xlink="http://www.w3.org/1999/xlink" x="0px" y="0px"
	 viewBox="0 0 45 45" style="enable-background:new 0 0 45 45;" xml:space="preserve">
<style type="text/css">
	.st0{fill:#333333;}
	.st1{fill:#007BFF;}
</style>
<g>
	<path class="st0" d="M22.5,42.5c-2.7,0-5.3-0.5-7.8-1.6c-2.4-1-4.5-2.5-6.4-4.3s-3.3-4-4.3-6.4c-1-2.5-1.6-5.1-1.6-7.8
		s0.5-5.3,1.6-7.8c1-2.4,2.5-4.5,4.3-6.4s4-3.3,6.4-4.3c2.5-1,5.1-1.6,7.8-1.6s5.3,0.5,7.8,1.6c2.4,1,4.5,2.5,6.4,4.3s3.3,4,4.3,6.4
		c1,2.5,1.6,5.1,1.6,7.8s-0.5,5.3-1.6,7.8c-1,2.4-2.5,4.5-4.3,6.4s-4,3.3-6.4,4.3C27.8,42,25.2,42.5,22.5,42.5z M22.5,4.6
		c-9.9,0-18,8.1-18,18s8.1,18,18,18s18-8,18-18S32.4,4.6,22.5,4.6z"/>
	<path class="st1" d="M34.4,24.8c0-3.4-2.8-6.2-6.1-6.2c-0.3,0-0.6,0-0.9,0.1c-1-3.4-4.6-5.4-7.9-4.3c-1.3,0.4-2.5,1.2-3.3,2.4
		c-0.8,1.1-1.3,2.5-1.2,3.9c-2.8,0.5-4.7,3.1-4.3,6c0.4,2.5,2.6,4.4,5.1,4.4H29c0.1,0,0.3,0,0.4-0.1C32.3,30.3,34.4,27.8,34.4,24.8z
		 M28.3,29.3H15.7c-1.9,0-3.5-1.6-3.5-3.5s1.6-3.6,3.5-3.6c0,0,0,0,0,0c0.1,0,0.1,0,0.2,0c0.4-0.1,0.7-0.5,0.6-0.9
		c-0.4-2.6,1.4-5.1,4-5.5c0,0,0,0,0,0c2.3-0.4,4.6,1.1,5.3,3.4c-2.2,1-3.6,3.2-3.6,5.6c0,0.5,0.4,0.8,0.8,0.8c0.4,0,0.8-0.4,0.8-0.8
		c0-2.5,2-4.6,4.5-4.6s4.5,2,4.5,4.5C32.8,27.2,30.8,29.3,28.3,29.3C28.3,29.3,28.3,29.3,28.3,29.3z"/>
</g>
</svg>
