<?xml version="1.0" encoding="utf-8"?>
<!-- Generator: Adobe Illustrator 25.0.0, SVG Export Plug-In . SVG Version: 6.00 Build 0)  -->
<svg version="1.1" id="图层_1" xmlns="http://www.w3.org/2000/svg" xmlns:xlink="http://www.w3.org/1999/xlink" x="0px" y="0px"
	 viewBox="0 0 45 45" style="enable-background:new 0 0 45 45;" xml:space="preserve">
<style type="text/css">
	.st0{fill:#007BFF;}
</style>
<g>
	<path d="M23.53,9.98h11.7c4.02,0,7.27,3.24,7.27,7.23l0,0v18.07c0,3.99-3.26,7.23-7.27,7.23l0,0H9.77c-4.02,0-7.27-3.24-7.27-7.23
		l0,0V17.21c0-3.99,3.26-7.23,7.27-7.23h11.05l-7.09-5.87c-0.39-0.31-0.46-0.88-0.15-1.27c0.31-0.39,0.88-0.46,1.28-0.15
		c0.01,0.01,0.02,0.02,0.03,0.03l7.28,6.03l7.28-6.03c0.38-0.33,0.95-0.29,1.28,0.09c0.33,0.38,0.29,0.95-0.09,1.27
		c-0.01,0.01-0.02,0.02-0.03,0.03L23.53,9.98z M9.77,11.79c-3.01,0-5.45,2.43-5.45,5.42v18.07c0,2.99,2.44,5.42,5.45,5.42h25.45
		c3.01,0,5.45-2.43,5.45-5.42V17.21c0-2.99-2.44-5.42-5.45-5.42H9.77z"/>
	<path class="st0" d="M23.6,32.93c-1.14,0.9-2.76,0.66-3.62-0.54c-0.34-0.48-0.52-1.04-0.52-1.63v-9.03c0-1.5,1.16-2.71,2.58-2.71
		c0.56,0,1.1,0.19,1.55,0.54l5.74,4.52c1.14,0.9,1.37,2.6,0.52,3.79c-0.15,0.21-0.32,0.39-0.52,0.54L23.6,32.93z M28.39,26.78
		c0.28-0.4,0.21-0.95-0.17-1.26L22.63,21c-0.14-0.12-0.32-0.18-0.5-0.18c-0.46,0-0.84,0.4-0.84,0.9v9.03c0,0.2,0.06,0.38,0.17,0.54
		c0.28,0.4,0.8,0.48,1.17,0.18l5.59-4.52C28.29,26.91,28.35,26.85,28.39,26.78z"/>
</g>
</svg>
